<svg xmlns="http://www.w3.org/2000/svg" xmlns:xlink="http://www.w3.org/1999/xlink" contentStyleType="text/css" data-diagram-type="CLASS" height="721px" preserveAspectRatio="none" style="width:534px;height:721px;background:#FFFFFF;" version="1.1" viewBox="0 0 534 721" width="534px" zoomAndPan="magnify"><defs/><g><!--class Publication_Channel--><g class="entity" data-entity="Publication_Channel" data-source-line="339" data-uid="ent0002" id="entity_Publication_Channel"><rect fill="#FFFFFF" height="72.5938" rx="2.5" ry="2.5" style="stroke:#181818;stroke-width:0.5;" width="216.8936" x="170.5" y="342"/><ellipse cx="205.0038" cy="358" fill="#ADD1B2" rx="11" ry="11" style="stroke:#181818;stroke-width:1;"/><path d="M207.9726,363.6406 Q207.3944,363.9375 206.7538,364.0781 Q206.1132,364.2344 205.4101,364.2344 Q202.9101,364.2344 201.5819,362.5938 Q200.2694,360.9375 200.2694,357.8125 Q200.2694,354.6875 201.5819,353.0313 Q202.9101,351.375 205.4101,351.375 Q206.1132,351.375 206.7538,351.5313 Q207.4101,351.6875 207.9726,351.9844 L207.9726,354.7031 Q207.3476,354.125 206.7538,353.8594 Q206.1601,353.5781 205.5351,353.5781 Q204.1913,353.5781 203.5038,354.6563 Q202.8163,355.7188 202.8163,357.8125 Q202.8163,359.9063 203.5038,360.9844 Q204.1913,362.0469 205.5351,362.0469 Q206.1601,362.0469 206.7538,361.7813 Q207.3476,361.5 207.9726,360.9219 L207.9726,363.6406 Z " fill="#000000"/><text fill="#000000" font-family="sans-serif" font-size="14" lengthAdjust="spacing" textLength="141.5518" x="223.338" y="362.8467">Publication_Channel</text><line style="stroke:#181818;stroke-width:0.5;" x1="171.5" x2="386.3936" y1="374" y2="374"/><text fill="#000000" font-family="sans-serif" font-size="14" lengthAdjust="spacing" textLength="170.8711" x="176.5" y="390.9951">title : Multilingual_String</text><text fill="#000000" font-family="sans-serif" font-size="14" lengthAdjust="spacing" textLength="204.8936" x="176.5" y="407.292">acronym : Multilingual_String</text></g><!--class Document--><g class="entity" data-entity="Document" data-source-line="344" data-uid="ent0003" id="entity_Document"><rect fill="#F1F1F1" height="32" rx="2.5" ry="2.5" style="stroke:#181818;stroke-width:0.5;" width="104.5293" x="226.5" y="7"/><ellipse cx="241.5" cy="23" fill="#ADD1B2" rx="11" ry="11" style="stroke:#181818;stroke-width:1;"/><path d="M244.4688,28.6406 Q243.8906,28.9375 243.25,29.0781 Q242.6094,29.2344 241.9063,29.2344 Q239.4063,29.2344 238.0781,27.5938 Q236.7656,25.9375 236.7656,22.8125 Q236.7656,19.6875 238.0781,18.0313 Q239.4063,16.375 241.9063,16.375 Q242.6094,16.375 243.25,16.5313 Q243.9063,16.6875 244.4688,16.9844 L244.4688,19.7031 Q243.8438,19.125 243.25,18.8594 Q242.6563,18.5781 242.0313,18.5781 Q240.6875,18.5781 240,19.6563 Q239.3125,20.7188 239.3125,22.8125 Q239.3125,24.9063 240,25.9844 Q240.6875,27.0469 242.0313,27.0469 Q242.6563,27.0469 243.25,26.7813 Q243.8438,26.5 244.4688,25.9219 L244.4688,28.6406 Z " fill="#000000"/><text fill="#000000" font-family="sans-serif" font-size="14" lengthAdjust="spacing" textLength="72.5293" x="255.5" y="27.8467">Document</text></g><!--class Document_Publication--><g class="entity" data-entity="Document_Publication" data-source-line="344" data-uid="ent0004" id="entity_Document_Publication"><rect fill="#FFFFFF" height="56.2969" rx="2.5" ry="2.5" style="stroke:#181818;stroke-width:0.5;" width="188.6045" x="184.5" y="116"/><ellipse cx="199.5" cy="132" fill="#ADD1B2" rx="11" ry="11" style="stroke:#181818;stroke-width:1;"/><path d="M202.4688,137.6406 Q201.8906,137.9375 201.25,138.0781 Q200.6094,138.2344 199.9063,138.2344 Q197.4063,138.2344 196.0781,136.5938 Q194.7656,134.9375 194.7656,131.8125 Q194.7656,128.6875 196.0781,127.0313 Q197.4063,125.375 199.9063,125.375 Q200.6094,125.375 201.25,125.5313 Q201.9063,125.6875 202.4688,125.9844 L202.4688,128.7031 Q201.8438,128.125 201.25,127.8594 Q200.6563,127.5781 200.0313,127.5781 Q198.6875,127.5781 198,128.6563 Q197.3125,129.7188 197.3125,131.8125 Q197.3125,133.9063 198,134.9844 Q198.6875,136.0469 200.0313,136.0469 Q200.6563,136.0469 201.25,135.7813 Q201.8438,135.5 202.4688,134.9219 L202.4688,137.6406 Z " fill="#000000"/><text fill="#000000" font-family="sans-serif" font-size="14" lengthAdjust="spacing" textLength="156.6045" x="213.5" y="136.8467">Document_Publication</text><line style="stroke:#181818;stroke-width:0.5;" x1="185.5" x2="372.1045" y1="148" y2="148"/><text fill="#000000" font-family="sans-serif" font-size="14" lengthAdjust="spacing" textLength="158.0605" x="190.5" y="164.9951">publicationDate : Date</text></g><!--class Contents_Location--><g class="entity" data-entity="Contents_Location" data-source-line="351" data-uid="ent0007" id="entity_Contents_Location"><rect fill="#F1F1F1" height="32" rx="2.5" ry="2.5" style="stroke:#181818;stroke-width:0.5;" width="161.4316" x="316.5" y="249"/><ellipse cx="331.5" cy="265" fill="#ADD1B2" rx="11" ry="11" style="stroke:#181818;stroke-width:1;"/><path d="M334.4688,270.6406 Q333.8906,270.9375 333.25,271.0781 Q332.6094,271.2344 331.9063,271.2344 Q329.4063,271.2344 328.0781,269.5938 Q326.7656,267.9375 326.7656,264.8125 Q326.7656,261.6875 328.0781,260.0313 Q329.4063,258.375 331.9063,258.375 Q332.6094,258.375 333.25,258.5313 Q333.9063,258.6875 334.4688,258.9844 L334.4688,261.7031 Q333.8438,261.125 333.25,260.8594 Q332.6563,260.5781 332.0313,260.5781 Q330.6875,260.5781 330,261.6563 Q329.3125,262.7188 329.3125,264.8125 Q329.3125,266.9063 330,267.9844 Q330.6875,269.0469 332.0313,269.0469 Q332.6563,269.0469 333.25,268.7813 Q333.8438,268.5 334.4688,267.9219 L334.4688,270.6406 Z " fill="#000000"/><text fill="#000000" font-family="sans-serif" font-size="14" lengthAdjust="spacing" textLength="129.4316" x="345.5" y="269.8467">Contents_Location</text></g><ellipse cx="279" cy="265" fill="#181818" rx="2" ry="2" style="stroke:#181818;stroke-width:1;"/><!--class Repository--><g class="entity" data-entity="Repository" data-source-line="353" data-uid="ent0013" id="entity_Repository"><rect fill="#FFFFFF" height="32" rx="2.5" ry="2.5" style="stroke:#181818;stroke-width:0.5;" width="107.0723" x="40.5" y="496.5"/><ellipse cx="55.5" cy="512.5" fill="#ADD1B2" rx="11" ry="11" style="stroke:#181818;stroke-width:1;"/><path d="M58.4688,518.1406 Q57.8906,518.4375 57.25,518.5781 Q56.6094,518.7344 55.9063,518.7344 Q53.4063,518.7344 52.0781,517.0938 Q50.7656,515.4375 50.7656,512.3125 Q50.7656,509.1875 52.0781,507.5313 Q53.4063,505.875 55.9063,505.875 Q56.6094,505.875 57.25,506.0313 Q57.9063,506.1875 58.4688,506.4844 L58.4688,509.2031 Q57.8438,508.625 57.25,508.3594 Q56.6563,508.0781 56.0313,508.0781 Q54.6875,508.0781 54,509.1563 Q53.3125,510.2188 53.3125,512.3125 Q53.3125,514.4063 54,515.4844 Q54.6875,516.5469 56.0313,516.5469 Q56.6563,516.5469 57.25,516.2813 Q57.8438,516 58.4688,515.4219 L58.4688,518.1406 Z " fill="#000000"/><text fill="#000000" font-family="sans-serif" font-size="14" lengthAdjust="spacing" textLength="75.0723" x="69.5" y="517.3467">Repository</text></g><!--class Infrastructure--><g class="entity" data-entity="Infrastructure" data-source-line="358" data-uid="ent0015" id="entity_Infrastructure"><rect fill="#F1F1F1" height="32" rx="2.5" ry="2.5" style="stroke:#181818;stroke-width:0.5;" width="128.1064" x="7" y="362.5"/><ellipse cx="22" cy="378.5" fill="#ADD1B2" rx="11" ry="11" style="stroke:#181818;stroke-width:1;"/><path d="M24.9688,384.1406 Q24.3906,384.4375 23.75,384.5781 Q23.1094,384.7344 22.4063,384.7344 Q19.9063,384.7344 18.5781,383.0938 Q17.2656,381.4375 17.2656,378.3125 Q17.2656,375.1875 18.5781,373.5313 Q19.9063,371.875 22.4063,371.875 Q23.1094,371.875 23.75,372.0313 Q24.4063,372.1875 24.9688,372.4844 L24.9688,375.2031 Q24.3438,374.625 23.75,374.3594 Q23.1563,374.0781 22.5313,374.0781 Q21.1875,374.0781 20.5,375.1563 Q19.8125,376.2188 19.8125,378.3125 Q19.8125,380.4063 20.5,381.4844 Q21.1875,382.5469 22.5313,382.5469 Q23.1563,382.5469 23.75,382.2813 Q24.3438,382 24.9688,381.4219 L24.9688,384.1406 Z " fill="#000000"/><text fill="#000000" font-family="sans-serif" font-size="14" lengthAdjust="spacing" textLength="96.1064" x="36" y="383.3467">Infrastructure</text></g><!--class XXX--><g class="entity" data-entity="XXX" data-source-line="10" data-uid="ent0017" id="entity_XXX"><rect fill="#DDEEDD" height="72.5938" rx="2.5" ry="2.5" style="stroke:#181818;stroke-width:0.5;" width="147.8164" x="205" y="476"/><ellipse cx="260.272" cy="492" fill="#ADD1B2" rx="11" ry="11" style="stroke:#181818;stroke-width:1;"/><path d="M263.2407,497.6406 Q262.6626,497.9375 262.022,498.0781 Q261.3813,498.2344 260.6782,498.2344 Q258.1782,498.2344 256.8501,496.5938 Q255.5376,494.9375 255.5376,491.8125 Q255.5376,488.6875 256.8501,487.0313 Q258.1782,485.375 260.6782,485.375 Q261.3813,485.375 262.022,485.5313 Q262.6782,485.6875 263.2407,485.9844 L263.2407,488.7031 Q262.6157,488.125 262.022,487.8594 Q261.4282,487.5781 260.8032,487.5781 Q259.4595,487.5781 258.772,488.6563 Q258.0845,489.7188 258.0845,491.8125 Q258.0845,493.9063 258.772,494.9844 Q259.4595,496.0469 260.8032,496.0469 Q261.4282,496.0469 262.022,495.7813 Q262.6157,495.5 263.2407,494.9219 L263.2407,497.6406 Z " fill="#000000"/><text fill="#000000" font-family="sans-serif" font-size="14" lengthAdjust="spacing" textLength="28.7725" x="280.772" y="496.8467">XXX</text><line style="stroke:#181818;stroke-width:0.5;" x1="206" x2="351.8164" y1="508" y2="508"/><text fill="#000000" font-family="sans-serif" font-size="14" lengthAdjust="spacing" textLength="127.4971" x="211" y="524.9951">fieldName1 : Date</text><text fill="#000000" font-family="sans-serif" font-size="14" lengthAdjust="spacing" textLength="135.8164" x="211" y="541.292">fieldName2 : String</text></g><!--class XXX_Type--><g class="entity" data-entity="XXX_Type" data-source-line="15" data-uid="ent0018" id="entity_XXX_Type"><rect fill="#DDEEDD" height="88.8906" rx="2.5" ry="2.5" style="stroke:#181818;stroke-width:0.5;" width="102.1094" x="228" y="626"/><ellipse cx="243" cy="642" fill="#EB937F" rx="11" ry="11" style="stroke:#181818;stroke-width:1;"/><path d="M247.1094,648 L239.3906,648 L239.3906,635.6094 L247.1094,635.6094 L247.1094,637.7656 L241.8438,637.7656 L241.8438,640.4375 L246.6094,640.4375 L246.6094,642.5938 L241.8438,642.5938 L241.8438,645.8438 L247.1094,645.8438 L247.1094,648 Z " fill="#000000"/><text fill="#000000" font-family="sans-serif" font-size="14" lengthAdjust="spacing" textLength="70.1094" x="257" y="646.8467">XXX_Type</text><line style="stroke:#181818;stroke-width:0.5;" x1="229" x2="329.1094" y1="658" y2="658"/><text fill="#000000" font-family="sans-serif" font-size="14" lengthAdjust="spacing" textLength="43.2441" x="234" y="674.9951">Type1</text><text fill="#000000" font-family="sans-serif" font-size="14" lengthAdjust="spacing" textLength="43.2441" x="234" y="691.292">Type2</text><text fill="#000000" font-family="sans-serif" font-size="14" lengthAdjust="spacing" textLength="43.2441" x="234" y="707.5889">Type3</text></g><g class="entity" data-entity="GMN21" data-source-line="29" data-uid="ent0022" id="entity_GMN21"><path d="M388,500 L388,508.5 L353.12,512.5 L388,516.5 L388,525.1328 A0,0 0 0 0 388,525.1328 L527.7837,525.1328 A0,0 0 0 0 527.7837,525.1328 L527.7837,510 L517.7837,500 L388,500 A0,0 0 0 0 388,500" fill="#DDEEDD" style="stroke:#181818;stroke-width:0.5;"/><path d="M517.7837,500 L517.7837,510 L527.7837,510 L517.7837,500" fill="#DDEEDD" style="stroke:#181818;stroke-width:0.5;"/><text fill="#000000" font-family="sans-serif" font-size="13" lengthAdjust="spacing" textLength="118.7837" x="394" y="517.0669">Note for the class.</text></g><!--link Document to Document_Publication--><g class="link" data-entity-1="Document" data-entity-2="Document_Publication" data-source-line="344" data-uid="lnk5" id="link_Document_Document_Publication"><path codeLine="344" d="M279,39.07 C279,58.33 279,86.03 279,109.82" fill="none" id="Document-to-Document_Publication" style="stroke:#181818;stroke-width:1;"/><polygon fill="#181818" points="279,115.82,283,106.82,279,110.82,275,106.82,279,115.82" style="stroke:#181818;stroke-width:1;"/><polygon fill="#000000" points="284,82.5664,286.9389,73.5213,281.0611,73.5213,284,82.5664" style="stroke:#000000;stroke-width:1;"/><text fill="#000000" font-family="sans-serif" font-size="13" lengthAdjust="spacing" textLength="82.1006" x="293" y="82.0669">published as</text><text fill="#000000" font-family="sans-serif" font-size="13" lengthAdjust="spacing" textLength="23.0356" x="253.5315" y="105.064">0..*</text></g><!--link Document_Publication to apoint8--><g class="link" data-entity-1="Document_Publication" data-entity-2="apoint8" data-source-line="351" data-uid="lnk10" id="link_Document_Publication_apoint8"><path d="M279,172 C279,204.37 279,255.24 279,263" fill="none" id="Document_Publication-apoint8" style="stroke:#181818;stroke-width:1;"/><polygon fill="#000000" points="284,215.5664,286.9389,206.5213,281.0611,206.5213,284,215.5664" style="stroke:#000000;stroke-width:1;"/><text fill="#000000" font-family="sans-serif" font-size="13" lengthAdjust="spacing" textLength="11.8511" x="293" y="215.0669">in</text></g><!--link apoint8 to Publication_Channel--><g class="link" data-entity-1="apoint8" data-entity-2="Publication_Channel" data-source-line="351" data-uid="lnk11" id="link_apoint8_Publication_Channel"><path d="M279,267.25 C279,274.57 279,306.52 279,335.88" fill="none" id="apoint8-to-Publication_Channel" style="stroke:#181818;stroke-width:1;"/><polygon fill="#181818" points="279,341.88,283,332.88,279,336.88,275,332.88,279,341.88" style="stroke:#181818;stroke-width:1;"/><text fill="#000000" font-family="sans-serif" font-size="13" lengthAdjust="spacing" textLength="24.8066" x="252.8717" y="330.862">0..1</text></g><!--link apoint8 to Contents_Location--><g class="link" data-entity-1="apoint8" data-entity-2="Contents_Location" data-source-line="351" data-uid="lnk12" id="link_apoint8_Contents_Location"><path d="M281.3,265 C292.9,265 304.5,265 316.1,265" fill="none" id="apoint8-Contents_Location" style="stroke:#181818;stroke-width:1;stroke-dasharray:7,7;"/></g><!--reverse link Publication_Channel to Repository--><g class="link" data-entity-1="Publication_Channel" data-entity-2="Repository" data-source-line="356" data-uid="lnk14" id="link_Publication_Channel_Repository"><path codeLine="356" d="M214.2872,425.6745 C177.0472,452.2445 142.74,476.72 115.2,496.37" fill="none" id="Publication_Channel-backto-Repository" style="stroke:#181818;stroke-width:1;"/><polygon fill="none" points="228.94,415.22,210.8024,420.7902,217.772,430.5587,228.94,415.22" style="stroke:#181818;stroke-width:1;"/></g><!--reverse link Infrastructure to Repository--><g class="link" data-entity-1="Infrastructure" data-entity-2="Repository" data-source-line="358" data-uid="lnk16" id="link_Infrastructure_Repository"><path codeLine="358" d="M76.7274,412.3732 C81.1374,437.7032 86.88,470.65 91.32,496.13" fill="none" id="Infrastructure-backto-Repository" style="stroke:#181818;stroke-width:1;"/><polygon fill="none" points="73.64,394.64,70.8163,413.4024,82.6385,411.3441,73.64,394.64" style="stroke:#181818;stroke-width:1;"/></g><!--reverse link Publication_Channel to XXX--><g class="link" data-entity-1="Publication_Channel" data-entity-2="XXX" data-source-line="22" data-uid="lnk19" id="link_Publication_Channel_XXX"><path codeLine="22" d="M279,433.22 C279,452 279,456.96 279,475.75" fill="none" id="Publication_Channel-backto-XXX" style="stroke:#181818;stroke-width:1;"/><polygon fill="none" points="279,415.22,273,433.22,285,433.22,279,415.22" style="stroke:#181818;stroke-width:1;"/></g><!--link XXX to XXX_Type--><g class="link" data-entity-1="XXX" data-entity-2="XXX_Type" data-source-line="24" data-uid="lnk20" id="link_XXX_XXX_Type"><path codeLine="24" d="M279,549.29 C279,572.05 279,595.67 279,619.81" fill="none" id="XXX-to-XXX_Type" style="stroke:#181818;stroke-width:1;stroke-dasharray:7,7;"/><polygon fill="#181818" points="279,625.81,283,616.81,279,620.81,275,616.81,279,625.81" style="stroke:#181818;stroke-width:1;"/><text fill="#000000" font-family="sans-serif" font-size="13" lengthAdjust="spacing" textLength="29.0405" x="280" y="592.0669">type</text></g><!--SRC=[bL9DJm8n4BtpAnxhWOkx1BmHumKryKACUk16IZj0JJz8FpH4_U-skx2OB19jccOwRpflvaq1e2yDLr6GZqjKrJ3jwTtJmtqvjOw6GhArOzeFURfLswXLdrkjhUcbbwYF_xv_Z4ibEGlIciLqmumXTKmsmCv6S6P0RsImJut4kLKKik7e4iO6l4OV88D7ulN4SpgF4c5JHsjc1AJ7afHzFoO_rFgNGdjDTpum5t9ly_byiIUgaRouOjwZI5212o68XC17Y-QragJ4Z6aQOO9R5kWqEaxeSt3Ih5lygxLQWqpKDTlYPRUbtoWpDkfunXtFrJcgGTQrRY_L16yreLOBMQscxpQsE37I0jUVPRcNffk-yLVLpSzs9YX2DhhXpIZ8Y5HKCvVq1GXEhZS1TfLdSn1ZWbc6LjOrVo5NMlM-0G00]--></g></svg>